<?xml version="1.0" encoding="UTF-8" standalone="no"?>
<!DOCTYPE svg PUBLIC "-//W3C//DTD SVG 1.1//EN" "http://www.w3.org/Graphics/SVG/1.1/DTD/svg11.dtd">
<svg width="100%" height="100%" viewBox="0 0 1024 1024" version="1.1" xmlns="http://www.w3.org/2000/svg" xmlns:xlink="http://www.w3.org/1999/xlink" xml:space="preserve" xmlns:serif="http://www.serif.com/" style="fill-rule:evenodd;clip-rule:evenodd;stroke-linejoin:round;stroke-miterlimit:2;">
    <g transform="matrix(1,0,0,1,768,768)">
        <g transform="matrix(1,0,0,1,-256,-256)">
            <path d="M383,81.68C408.967,81.707 430.32,103.082 430.32,129.05C430.32,155.036 408.936,176.42 382.95,176.42C356.964,176.42 335.58,155.036 335.58,129.05C335.58,129.033 335.58,129.017 335.58,129C335.607,103.032 356.982,81.68 382.95,81.68C382.967,81.68 382.983,81.68 383,81.68ZM81.67,383C81.692,408.971 103.069,430.33 129.04,430.33C155.026,430.33 176.41,408.946 176.41,382.96C176.41,356.974 155.026,335.59 129.04,335.59C129.027,335.59 129.013,335.59 129,335.59C103.029,335.612 81.67,356.989 81.67,382.96C81.67,382.973 81.67,382.987 81.67,383ZM428,47.57L84,47.57C64.025,47.597 47.597,64.025 47.57,84L47.57,428C47.597,447.975 64.025,464.403 84,464.43L428,464.43C447.975,464.403 464.403,447.975 464.43,428L464.43,84C464.403,64.025 447.975,47.597 428,47.57M428,27.57C458.934,27.63 484.37,53.066 484.43,84L484.43,428C484.37,458.934 458.934,484.37 428,484.43L84,484.43C53.066,484.37 27.63,458.934 27.57,428L27.57,84C27.63,53.066 53.066,27.63 84,27.57L428,27.57Z" style="fill-rule:nonzero;"/>
        </g>
    </g>
    <g transform="matrix(1,0,0,1,256,256)">
        <g transform="matrix(1,0,0,1,-256,-256)">
            <path d="M302.87,255.5C302.87,281.486 281.486,302.87 255.5,302.87C229.514,302.87 208.13,281.486 208.13,255.5C208.13,229.514 229.514,208.13 255.5,208.13C281.486,208.13 302.87,229.514 302.87,255.5ZM484.5,428.02C484.5,459.004 459.004,484.5 428.02,484.5L84.02,484.5C84.007,484.5 83.993,484.5 83.98,484.5C52.996,484.5 27.5,459.004 27.5,428.02L27.5,84.02C27.5,84.007 27.5,83.993 27.5,83.98C27.5,52.996 52.996,27.5 83.98,27.5L427.98,27.5C427.993,27.5 428.007,27.5 428.02,27.5C459.004,27.5 484.5,52.996 484.5,83.98L484.5,428.02ZM464.5,84.02C464.5,84.007 464.5,83.993 464.5,83.98C464.5,63.968 448.032,47.5 428.02,47.5L84.02,47.5C84.007,47.5 83.993,47.5 83.98,47.5C63.968,47.5 47.5,63.968 47.5,83.98L47.5,427.98C47.5,427.993 47.5,428.007 47.5,428.02C47.5,448.032 63.968,464.5 83.98,464.5L427.98,464.5C427.993,464.5 428.007,464.5 428.02,464.5C448.032,464.5 464.5,448.032 464.5,428.02L464.5,84.02Z" style="fill-rule:nonzero;"/>
        </g>
    </g>
</svg>
